<?xml version="1.0" encoding="utf-8"?>
<!-- Generator: Adobe Illustrator 28.4.1, SVG Export Plug-In . SVG Version: 6.00 Build 0)  -->
<svg version="1.1" baseProfile="basic" id="レイヤー_1"
	 xmlns="http://www.w3.org/2000/svg" xmlns:xlink="http://www.w3.org/1999/xlink" x="0px" y="0px" viewBox="0 0 426.5 71.5"
	 xml:space="preserve">
<g>
	<path d="M59.9,56.8H40.5c-1.6,0-2.8-1.3-2.8-2.8s1.3-2.8,2.8-2.8h19.5c1.6,0,2.8,1.3,2.8,2.8S61.5,56.8,59.9,56.8z"/>
	<path d="M115.1,56.8H89c-1.6,0-2.8-1.3-2.8-2.8s1.3-2.8,2.8-2.8h26.2c1.6,0,2.8,1.3,2.8,2.8S116.7,56.8,115.1,56.8z"/>
	<g>
		<path d="M41,29.9c0-7.9,5.9-13.6,13.6-13.6S68,22.1,68,29.9c0,8.1-5.8,13.6-13.5,13.6S41,38.1,41,29.9z M62.6,29.9
			c0-5.3-3.7-8.7-8.1-8.7c-4.4,0-8.1,3.3-8.1,8.7c0,5.3,3.7,8.6,8.1,8.6S62.6,35.2,62.6,29.9z"/>
		<path d="M75.3,43.2c0-1.7-0.1-4.2-0.1-6c0,0-0.1,2.5-0.1-3.8c0-1.1,0-2.1,0-3c0-1.9,1.4-2.8,2.8-2.8c1.4,0,2.9,1,2.9,2.7
			c0,0.1,0,0.1,0,0.1c-0.1,1.8-0.1-2.6-0.1,0.1c0,5.3,0.1,6.8,0.1,6.8c0,1.4,0.1,4.7,0.1,6.8c0,0.5,0,1.1,0,1.7
			c-0.2,8.8-7.2,12.7-10.8,12.7c-1.7,0-2.7-1.5-2.7-2.9c0-1.2,0.6-2.3,2.1-2.5c3.1-0.5,5.7-3.4,5.8-7.9
			C75.3,44.4,75.3,43.7,75.3,43.2z M74.1,19.4c0-2.6,2.3-3.7,3.8-3.7c1.9,0,3.8,1.6,3.8,3.7c0,1.9-1.5,3.8-3.8,3.8
			C75.8,23.2,74.1,21.9,74.1,19.4z"/>
		<path d="M87.9,29.9c0-7.9,5.9-13.6,13.6-13.6s13.5,5.8,13.5,13.6c0,8.1-5.8,13.6-13.5,13.6S87.9,38.1,87.9,29.9z M109.5,29.9
			c0-5.3-3.7-8.7-8.1-8.7c-4.4,0-8.1,3.3-8.1,8.7c0,5.3,3.7,8.6,8.1,8.6C105.9,38.5,109.5,35.2,109.5,29.9z"/>
		<path d="M141.1,58.3c-13.4,0-20.6-10-20.6-20.4c0-10.9,7.7-21.3,20.8-21.3c8.6,0,14.4,4.9,14.4,7.9c0,1.8-1.6,3.3-3.3,3.3
			c-1,0-1.9-0.4-2.7-1.5c-2.1-2.6-5.5-3.8-8.9-3.8c-9.1,0-13.9,7.7-13.9,15c0,4.5,2.6,14.6,14,14.6c4.1,0,8.1-1.6,10.3-4.5
			c0.8-1,1.7-1.4,2.6-1.4c1.8,0,3.6,1.6,3.6,3.4C157.4,52.4,151,58.3,141.1,58.3z"/>
		<path d="M161,29.9c0-7.9,5.9-13.6,13.6-13.6s13.5,5.8,13.5,13.6c0,8.1-5.8,13.6-13.5,13.6S161,38.1,161,29.9z M182.7,29.9
			c0-5.3-3.7-8.7-8.1-8.7c-4.4,0-8.1,3.3-8.1,8.7c0,5.3,3.7,8.6,8.1,8.6S182.7,35.2,182.7,29.9z"/>
		<path d="M212.1,40.6c0.1-2.2,0.1-6.3,0.1-9.6c0-2.2-0.1-4-0.1-4.8c-0.2-3.3-2.1-4.7-4.4-4.7c-3.3,0-7.2,2.9-7.4,6.5
			c-0.1,1-0.1,2.2-0.1,3.7c0,2.2,0.1,5.1,0.2,8.9c0.1,1.1-0.6,2.7-2.7,2.7c-1.5,0-2.9-0.9-2.9-2.6c0-0.1,0-0.1,0-0.1
			c0.2-5.1,0.2-8.7,0.2-11.8c0-3.2-0.1-6-0.2-9.6c0-0.1,0-0.1,0-0.1c0-1.6,1.6-2.4,2.9-2.4c1.3,0,2.7,0.8,2.7,2.5
			c0,0.2-0.1,0.4-0.1,0.5c0,0.1,0,0.1,0,0.2c0,0.1,0,0.1,0.1,0.1c0.1,0,0.2-0.1,0.3-0.2c2-2.2,4.8-3.2,7.6-3.2c4.5,0,8.9,3,9.1,9
			c0.1,1.9,0.2,6.7,0.2,10.7c0,1.7,0,3.2-0.1,4.3c-0.1,1.9-1.4,2.9-2.8,2.9S212.1,42.4,212.1,40.6L212.1,40.6z"/>
		<path d="M254.7,33.3c0-4.8-0.1-9.5-0.3-14.2c-0.1-1.4,0.8-2.9,3.2-2.9c1.6,0,3.1,0.9,3.1,2.6c0,0.1,0,0.1,0,0.1
			c-0.2,4.9-0.2,10-0.2,15.2c0,3.7,0,8.5,0.1,12.5c0,0.1,0,0.3,0,0.4c0,7.4-5.3,11.2-11.7,11.2c-4.4,0-7-1.1-7-4c0-1.6,1.1-3,3-3
			c0.4,0,0.9,0.1,1.4,0.2c1,0.3,1.9,0.4,2.8,0.4c3.2,0,5.3-1.9,5.4-5.6C254.6,42.1,254.7,37.2,254.7,33.3z"/>
		<path d="M289,56.9c-0.5-0.4-1-1-1.5-1.8c-0.1-0.1-0.2-0.2-0.2-0.2c-0.1,0-0.2,0.1-0.3,0.2c-1.8,2.1-5.2,3.2-8.4,3.2
			c-5.9,0-9.4-4.3-9.4-8.4c0-2.7,1.6-5.5,5.2-6.7c3.7-1.3,8.3-2.3,9.2-2.4c0.5-0.1,1-0.7,1-1.8c0-0.6-0.2-3.4-3.8-3.4
			c-2.4,0-4.2,1.1-5.3,2.3c-0.6,0.7-1.3,1-2,1c-1.4,0-2.6-1.1-2.6-2.5c0-2.6,4.7-5.4,10.2-5.4c5.9,0,9.1,2.9,9.1,9.1
			c0,0.7-0.1,1.3-0.1,2.1c-0.1,0.8-0.3,2.9-0.3,4.5c0,0.5,0,0.9,0.1,1.2c0.5,4.3,2.5,4.5,2.9,4.8c0.6,0.4,0.9,1.1,0.9,1.9
			c0,1.5-1.2,3.2-2.7,3.2C290.4,57.7,289.7,57.4,289,56.9z M284.1,45.3c-9.1,1.1-9.6,3.4-9.6,4.7c0,1.7,1.5,3.3,4.2,3.3
			c4.4,0,6.2-2.2,6.2-6C284.9,46.5,284.8,45.3,284.1,45.3L284.1,45.3z"/>
		<path d="M306.9,34c0.1,0,0.1,0,0.2-0.1c2-1.7,4.5-2.8,7.5-2.8c7.4,0,13,5.4,13,13.5c0,7.9-5.6,13.5-13,13.5c-3,0-5.5-1.1-7.5-2.9
			c-0.1-0.1-0.2-0.2-0.3-0.2c-0.1,0-0.2,0.1-0.2,0.3c0,5.9,0.1,11,0.2,13.2c0.1,1.7-1.1,2.8-2.7,2.8c-1.5,0-2.9-1-2.9-2.8
			c0-0.1,0-0.2,0-0.3c0.2-1.9,0.2-6,0.2-10.7c0-8.1-0.1-18.2-0.1-23.3c0-2,1.4-3,2.8-3c1.2,0,2.5,0.9,2.7,2.5
			C306.8,33.9,306.9,34,306.9,34z M322.2,44.6c0-5.3-3.4-8.5-7.7-8.5c-4.3,0-7.7,3.2-7.7,8.5c0,5.3,3.4,8.6,7.7,8.6
			C318.8,53.2,322.2,49.9,322.2,44.6z"/>
		<path d="M352.4,56.9c-0.5-0.4-1-1-1.5-1.8c-0.1-0.1-0.2-0.2-0.2-0.2c-0.1,0-0.2,0.1-0.3,0.2c-1.8,2.1-5.2,3.2-8.4,3.2
			c-5.9,0-9.4-4.3-9.4-8.4c0-2.7,1.6-5.5,5.2-6.7c3.7-1.3,8.3-2.3,9.2-2.4c0.5-0.1,1-0.7,1-1.8c0-0.6-0.2-3.4-3.8-3.4
			c-2.4,0-4.2,1.1-5.3,2.3c-0.6,0.7-1.3,1-2,1c-1.4,0-2.6-1.1-2.6-2.5c0-2.6,4.7-5.4,10.2-5.4c5.9,0,9.1,2.9,9.1,9.1
			c0,0.7-0.1,1.3-0.1,2.1c-0.1,0.8-0.3,2.9-0.3,4.5c0,0.5,0,0.9,0.1,1.2c0.5,4.3,2.5,4.5,2.9,4.8c0.6,0.4,0.9,1.1,0.9,1.9
			c0,1.5-1.2,3.2-2.7,3.2C353.8,57.7,353.1,57.4,352.4,56.9z M347.5,45.3c-9.1,1.1-9.6,3.4-9.6,4.7c0,1.7,1.5,3.3,4.2,3.3
			c4.4,0,6.2-2.2,6.2-6C348.3,46.5,348.2,45.3,347.5,45.3L347.5,45.3z"/>
		<path d="M379.7,55.3c0.1-2.2,0.1-6.3,0.1-9.6c0-2.2-0.1-4-0.1-4.8c-0.2-3.3-2.1-4.7-4.4-4.7c-3.3,0-7.2,2.9-7.4,6.5
			c-0.1,1-0.1,2.2-0.1,3.7c0,2.2,0.1,5.1,0.2,8.9c0.1,1.1-0.6,2.7-2.7,2.7c-1.5,0-2.9-0.9-2.9-2.6c0-0.1,0-0.1,0-0.1
			c0.2-5.1,0.2-8.7,0.2-11.8c0-3.2-0.1-6-0.2-9.6c0-0.1,0-0.1,0-0.1c0-1.6,1.6-2.4,2.9-2.4c1.3,0,2.7,0.8,2.7,2.5
			c0,0.2-0.1,0.4-0.1,0.5c0,0.1,0,0.1,0,0.2c0,0.1,0,0.1,0.1,0.1c0.1,0,0.2-0.1,0.3-0.2c2-2.2,4.8-3.2,7.6-3.2c4.5,0,8.9,3,9.1,9
			c0.1,1.9,0.2,6.7,0.2,10.7c0,1.7,0,3.2-0.1,4.3c-0.1,1.9-1.4,2.9-2.8,2.9S379.7,57,379.7,55.3L379.7,55.3z"/>
		<path d="M363.6,21.1c-1,0-1.6-0.7-1.6-1.6c0-0.6,0.2-1.3,0.8-1.9c1.9-2.2,5.1-5.5,7.6-8.4c1.1-1.3,1.6-2.5,1.6-3.5
			c0-1.7-1.3-2.8-2.9-2.8c-1.2,0-2.5,0.6-3.4,2.1c-0.4,0.6-0.9,0.8-1.4,0.8c-0.8,0-1.6-0.6-1.6-1.5c0-1,2.1-4.3,6.5-4.3
			c3.2,0,6.3,2,6.3,5.3c0,1.6-0.7,3.4-2.3,5.5c-2.1,2.7-4.8,5-7.1,7.5c2.3,0,5.4-0.2,7.7-0.2c1.1,0,1.7,0.7,1.7,1.4
			c0,0.8-0.6,1.6-1.7,1.6H363.6z"/>
		<path d="M378.8,14.3c-0.1-1.2-0.2-2.4-0.2-3.5c0-1.1,0.1-2.1,0.1-3.3c0.4-4.8,3-7.5,6.8-7.5c3.7,0,6.3,2.5,6.8,7.2
			c0.1,1.2,0.2,2.4,0.2,3.6c0,3.1-0.2,10.7-7,10.7C381.9,21.5,379.3,18.9,378.8,14.3z M389.1,14.4c0.2-1.2,0.2-2.6,0.2-3.9
			c0-2.1,0-7.6-3.8-7.6c-1.9,0-3.4,1.8-3.7,4.7c-0.1,1-0.1,2-0.1,3c0,1.2,0.1,2.3,0.2,3.5c0.3,2.8,1.8,4.5,3.6,4.5
			C387.3,18.6,388.7,17,389.1,14.4z"/>
		<path d="M396.8,21.1c-1,0-1.6-0.7-1.6-1.6c0-0.6,0.3-1.3,0.8-1.9c1.9-2.2,5.1-5.5,7.6-8.4c1.1-1.3,1.6-2.5,1.6-3.5
			c0-1.7-1.3-2.8-2.9-2.8c-1.2,0-2.5,0.6-3.4,2.1c-0.4,0.6-0.9,0.8-1.4,0.8c-0.8,0-1.6-0.6-1.6-1.5c0-1,2.1-4.3,6.5-4.3
			c3.2,0,6.3,2,6.3,5.3c0,1.6-0.7,3.4-2.3,5.5c-2.1,2.7-4.8,5-7.1,7.5c2.3,0,5.4-0.2,7.7-0.2c1.1,0,1.7,0.7,1.7,1.4
			c0,0.8-0.6,1.6-1.7,1.6H396.8z"/>
		<path d="M423.2,19.7C423.2,19.8,423.2,19.8,423.2,19.7c0,1-0.7,1.5-1.5,1.5c-0.7,0-1.5-0.5-1.5-1.5c0-1,0-2.1,0-3.2
			c-2.7,0-5.5,0-5.8,0c-1.9,0-2.8-0.9-2.8-2.1c0-0.6,0.2-1.4,0.8-2.1c1.7-2.4,6.2-8.8,8.2-11.5c0.3-0.4,0.7-0.6,1.1-0.6
			c0.8,0,1.6,0.7,1.6,1.6c0,0.3-0.1,0.7-0.4,1.1c-8.1,10.6-8.1,10.6-8.1,10.8c0,0.3,0.4,0.3,1.1,0.3c0.9,0,2.6-0.1,4.2-0.1
			c0-1.1,0-2.2,0-3c0-0.6,0-1.1,0-1.5c0,0,0-0.1,0-0.1c0-1,0.7-1.5,1.5-1.5c0.7,0,1.4,0.5,1.4,1.6c0,1.3-0.1,2.4-0.1,4.4
			c1,0,1.8-0.1,1.9-0.1c0,0,0.1,0,0.1,0c0.9,0,1.4,0.7,1.4,1.4c0,0.7-0.5,1.4-1.6,1.4c-0.3,0-1,0-1.8,0
			C423.1,17.4,423.1,18.5,423.2,19.7z"/>
		<path d="M222.2,56.4c-0.4,0.3-0.9,0.4-1.4,0.4c-0.4,0-54.7,0-54.7,0c-1.6,0-2.8-1.3-2.8-2.8s1.3-2.8,2.8-2.8c0,0,51.1,0,51.6,0
			c0.5,0,0.9-0.1,1.3-0.4c0.3-0.2,0.6-0.5,0.7-0.7c0.2-0.3,19.6-32.3,19.7-32.5c0.2-0.3,0.5-0.6,0.8-0.8c0.3-0.2,0.8-0.3,1.3-0.3
			c0.5,0,4.6,0,4.6,0c1.6,0,2.8,1.3,2.8,2.8s-1.3,2.8-2.8,2.8c0,0-1.1,0-1.5,0c-0.4,0-0.8,0.1-1.2,0.3s-0.7,0.6-0.8,0.8
			c-0.1,0.2-19.5,32.2-19.7,32.5C222.8,55.9,222.6,56.2,222.2,56.4z"/>
		<path d="M318.3,22.1h-49.8c-1.6,0-2.8-1.3-2.8-2.8s1.3-2.8,2.8-2.8h49.8c1.6,0,2.8,1.3,2.8,2.8S319.9,22.1,318.3,22.1z"/>
		<circle cx="331.8" cy="16.8" r="4.8"/>
		<circle cx="348.6" cy="12.5" r="7.4"/>
		<g>
			<path d="M24.1,43.1c-0.1,0-0.5-0.1-1.1-0.3c-0.6-1.3-1.6-3.4-1.7-3c-0.1,0.4-0.4,1.7-0.5,2.4c-1.4-0.3-3-0.6-4.2-0.6
				c-1.2,0-2.8,0.3-4.2,0.6c-0.1-0.8-0.4-2-0.5-2.4c-0.1-0.4-1.2,1.7-1.7,3c-0.6,0.2-1,0.3-1.1,0.3c-0.4,0.1-0.7,0.6-0.5,1
				c0.1,0.3,0.4,0.6,0.8,0.6c0.1,0,0.2,0,0.2,0c0,0,4.6-1.4,7-1.4c2.4,0,7,1.4,7,1.4c0.4,0.1,0.9-0.1,1-0.5
				C24.8,43.7,24.5,43.2,24.1,43.1z"/>
			<path d="M16.8,16.5c-0.8-0.1-2.4-0.1-4.1-0.1c-6.7,0-12,0.2-12.4,7.6C0.2,26.9,0,33.1,0,39c0,4.5,0.1,8.9,0.3,11.5
				c0.5,7.5,8.2,7.6,12.5,7.6c5.6,0,23.3-0.1,23.3-21C36.1,25.9,29.3,17.3,16.8,16.5z M23,23.6c0.6,0.1,0.9,1.5,1,2.5l-2.7-0.6
				C21.7,24.8,22.4,23.5,23,23.6z M21,26.2l3.1,0.6c0,0,0,0,0,0.1c0,0.3,0.1,0.9,0.1,1.6l-3.8-0.8C20.6,27.2,20.8,26.7,21,26.2z
				 M20.2,28.5l4,0.9c0,0.9,0,1.7,0,1.7l-4.6-1C19.7,30,19.9,29.3,20.2,28.5z M10.2,23.6c0.6-0.1,1.4,1.2,1.7,1.9l-2.7,0.6
				C9.3,25,9.6,23.7,10.2,23.6z M9.1,26.9C9.1,26.9,9.1,26.9,9.1,26.9l3.1-0.7c0.2,0.4,0.4,1,0.6,1.5L9,28.5
				C9.1,27.9,9.1,27.2,9.1,26.9z M9,29.3l4-0.9c0.3,0.8,0.5,1.5,0.5,1.5L9,31C9,31,9,30.2,9,29.3z M27,44.9c0,1.4-1.1,2.6-2.6,2.6
				H8.8c-1.4,0-2.6-1.1-2.6-2.6V31.5c0-1.3,0.9-2.3,2.1-2.5c0,1.2-0.1,2.4-0.1,2.5l0,0.4l6.2-1.4l-0.1-0.3c0-0.1-0.2-0.5-0.4-1.2
				h5.3c-0.2,0.7-0.4,1.1-0.4,1.2l-0.1,0.3l6.2,1.4l0-0.4c0-0.1,0-1.3-0.1-2.5c1.2,0.2,2.1,1.3,2.1,2.5V44.9z"/>
		</g>
	</g>
</g>
</svg>
