<?xml version="1.0" encoding="UTF-8"?>
<svg id="_レイヤー_2" data-name="レイヤー 2" xmlns="http://www.w3.org/2000/svg" viewBox="0 0 315.73 82.15">
  <defs>
    <style>
      .cls-1 {
        fill: #dabb00;
      }

      .cls-1, .cls-2, .cls-3 {
        stroke-width: 0px;
      }

      .cls-2 {
        fill: #bc0008;
      }

      .cls-3 {
        fill: #000;
      }
    </style>
  </defs>
  <g id="_テキスト" data-name="テキスト">
    <g>
      <g>
        <g>
          <g>
            <path class="cls-1" d="M48.9,14.29l12.91,2.73c-.08-2.31-.17-4.47-.27-5.53,0-.07-.01-.16-.02-.23l-10.68-2.16c-.58,1.49-1.27,3.35-1.93,5.19Z"/>
            <path class="cls-1" d="M61.23,8.55c-.44-3.51-1.34-8.04-3.49-8.52-2.12-.47-4.7,4.2-5.87,6.62l9.36,1.89Z"/>
            <path class="cls-1" d="M48.01,16.77c-1.01,2.85-1.79,5.15-1.79,5.15l15.81,3.53s-.06-2.68-.15-5.74l-13.87-2.94Z"/>
          </g>
          <g>
            <path class="cls-1" d="M22.55,14.29l-12.91,2.73c.08-2.31.17-4.47.27-5.53,0-.07.01-.16.02-.23l10.68-2.16c.58,1.49,1.27,3.35,1.93,5.19Z"/>
            <path class="cls-1" d="M10.22,8.55C10.66,5.04,11.56.51,13.72.03c2.12-.47,4.7,4.2,5.87,6.62l-9.36,1.89Z"/>
            <path class="cls-1" d="M23.44,16.77c1.01,2.85,1.79,5.15,1.79,5.15l-15.81,3.53s.06-2.68.15-5.74l13.87-2.94Z"/>
          </g>
        </g>
        <path class="cls-2" d="M64.15,18.45c.13,4.14.22,8.19.22,8.49l.03,1.3-21.3-4.76.37-1.08c.07-.2.63-1.85,1.42-4.1h-18.34c.79,2.25,1.35,3.9,1.42,4.1l.37,1.08-21.3,4.76.03-1.3c0-.3.09-4.35.22-8.49-4.14.71-7.3,4.32-7.3,8.66v46.24c0,4.86,3.94,8.8,8.8,8.8h53.85c4.86,0,8.8-3.94,8.8-8.8V27.11c0-4.35-3.15-7.95-7.3-8.66ZM63.33,70.59c-.46,1.47-2.02,2.29-3.49,1.83-.16-.05-15.98-4.95-24.12-4.95s-23.95,4.9-24.11,4.95c-.28.09-.56.13-.83.13-1.19,0-2.29-.77-2.66-1.96-.46-1.47.36-3.04,1.83-3.49.19-.06,1.62-.5,3.76-1.1,1.91-4.38,5.57-11.83,5.95-10.4.37,1.39,1.24,5.83,1.74,8.42,4.85-1.12,10.3-2.12,14.32-2.12s9.48,1,14.33,2.12c.5-2.59,1.38-7.03,1.74-8.42.38-1.43,4.04,6.01,5.95,10.4,2.14.6,3.57,1.04,3.76,1.1,1.47.46,2.29,2.02,1.83,3.49Z"/>
      </g>
      <g>
        <path class="cls-3" d="M102.17,41.06c-3.31,0-9.19-.04-9.61-5.84-.12-2.03-.21-5.38-.21-8.86,0-4.55.12-9.36.25-11.59.33-5.67,4.43-5.84,9.57-5.84,1.28,0,2.53.04,3.15.08,9.57.62,14.82,7.29,14.82,15.9,0,16.11-13.66,16.15-17.97,16.15ZM101.59,13.4c-1.99,0-4.22.04-4.35,2.11-.12,1.74-.25,6.5-.25,10.97,0,3.27.08,6.34.25,7.91.21,1.91,1.49,2.24,4.93,2.24,4.35,0,13.08,0,13.08-11.72,0-6.67-4.02-11.47-10.35-11.47,0,0-1.78-.04-3.31-.04Z"/>
        <path class="cls-3" d="M104.5,60.22c0-3.85-.04-7.62-.22-11.43-.04-1.13.65-2.29,2.6-2.29,1.26,0,2.51.69,2.51,2.12v.09c-.13,3.98-.17,8.01-.17,12.21,0,2.99,0,6.85.09,10.09v.3c0,5.93-4.28,9-9.39,9-3.55,0-5.67-.91-5.67-3.2,0-1.25.87-2.42,2.42-2.42.35,0,.74.04,1.13.17.78.26,1.56.35,2.25.35,2.55,0,4.28-1.56,4.37-4.5.04-3.38.09-7.32.09-10.48Z"/>
        <path class="cls-3" d="M132.15,68.56c-.39-.3-.78-.78-1.17-1.43-.04-.09-.13-.13-.17-.13-.09,0-.17.04-.26.13-1.47,1.69-4.2,2.6-6.75,2.6-4.76,0-7.57-3.46-7.57-6.8,0-2.21,1.3-4.41,4.2-5.41,2.99-1.04,6.71-1.86,7.4-1.9.43-.04.78-.56.78-1.47,0-.52-.13-2.73-3.07-2.73-1.95,0-3.42.91-4.24,1.82-.48.56-1.08.78-1.6.78-1.13,0-2.08-.87-2.08-1.99,0-2.08,3.81-4.37,8.18-4.37,4.76,0,7.36,2.34,7.36,7.31,0,.56-.04,1.08-.09,1.69-.09.65-.22,2.29-.22,3.59,0,.39,0,.74.04,1,.39,3.46,1.99,3.59,2.34,3.85.48.35.69.91.69,1.51,0,1.21-.95,2.6-2.21,2.6-.48,0-1.04-.22-1.56-.65ZM128.17,59.25c-7.31.91-7.75,2.73-7.75,3.76,0,1.34,1.17,2.68,3.38,2.68,3.51,0,5.02-1.77,5.02-4.85,0-.65-.09-1.6-.61-1.6h-.04Z"/>
        <path class="cls-3" d="M146.54,50.12s.09,0,.13-.04c1.6-1.39,3.64-2.25,6.02-2.25,5.97,0,10.47,4.33,10.47,10.86s-4.5,10.86-10.47,10.86c-2.38,0-4.41-.91-6.02-2.29-.09-.04-.17-.13-.22-.13-.09,0-.13.09-.13.26,0,4.76.09,8.87.13,10.65.04,1.34-.87,2.25-2.21,2.25-1.17,0-2.29-.78-2.29-2.25v-.22c.13-1.56.13-4.8.13-8.61,0-6.54-.09-14.67-.09-18.78,0-1.6,1.13-2.42,2.25-2.42,1,0,1.99.69,2.16,1.99.04.09.09.13.13.13ZM158.83,58.69c0-4.24-2.77-6.84-6.23-6.84s-6.23,2.6-6.23,6.84,2.77,6.93,6.23,6.93,6.23-2.64,6.23-6.93Z"/>
        <path class="cls-3" d="M183.16,68.56c-.39-.3-.78-.78-1.17-1.43-.04-.09-.13-.13-.17-.13-.09,0-.17.04-.26.13-1.47,1.69-4.2,2.6-6.75,2.6-4.76,0-7.57-3.46-7.57-6.8,0-2.21,1.3-4.41,4.2-5.41,2.99-1.04,6.71-1.86,7.4-1.9.43-.04.78-.56.78-1.47,0-.52-.13-2.73-3.07-2.73-1.95,0-3.42.91-4.24,1.82-.48.56-1.08.78-1.6.78-1.13,0-2.08-.87-2.08-1.99,0-2.08,3.81-4.37,8.18-4.37,4.76,0,7.36,2.34,7.36,7.31,0,.56-.04,1.08-.09,1.69-.09.65-.22,2.29-.22,3.59,0,.39,0,.74.04,1,.39,3.46,1.99,3.59,2.34,3.85.48.35.69.91.69,1.51,0,1.21-.95,2.6-2.21,2.6-.48,0-1.04-.22-1.56-.65ZM179.18,59.25c-7.31.91-7.75,2.73-7.75,3.76,0,1.34,1.17,2.68,3.38,2.68,3.51,0,5.02-1.77,5.02-4.85,0-.65-.09-1.6-.61-1.6h-.04Z"/>
        <path class="cls-3" d="M205.1,67.26c.04-1.77.09-5.06.09-7.7,0-1.73-.04-3.2-.09-3.9-.17-2.68-1.69-3.77-3.51-3.77-2.64,0-5.8,2.34-5.93,5.24-.04.78-.04,1.77-.04,2.99,0,1.77.04,4.07.13,7.14.04.91-.48,2.21-2.21,2.21-1.17,0-2.29-.74-2.29-2.12v-.09c.13-4.11.17-6.97.17-9.52s-.04-4.85-.13-7.75v-.09c0-1.3,1.26-1.95,2.34-1.95s2.21.65,2.21,2.03c0,.17-.04.3-.04.43v.13s0,.09.04.09.13-.09.22-.17c1.6-1.73,3.9-2.6,6.15-2.6,3.64,0,7.14,2.38,7.31,7.23.04,1.56.13,5.41.13,8.61,0,1.34,0,2.55-.04,3.46-.04,1.56-1.13,2.29-2.25,2.29s-2.25-.78-2.25-2.16v-.04Z"/>
        <path class="cls-3" d="M265.23,49.85c-.78,0-1.24-.58-1.24-1.31,0-.49.2-1.02.64-1.51,1.53-1.73,4.11-4.38,6.07-6.78.89-1.07,1.24-2.05,1.24-2.85,0-1.4-1.07-2.27-2.31-2.27-.96,0-2,.51-2.73,1.71-.29.47-.73.67-1.16.67-.67,0-1.31-.49-1.31-1.18,0-.78,1.69-3.42,5.18-3.42,2.58,0,5.02,1.6,5.02,4.25,0,1.27-.53,2.73-1.84,4.4-1.69,2.13-3.87,4.02-5.71,6.02,1.84-.02,4.36-.2,6.18-.2.91,0,1.33.58,1.33,1.16,0,.64-.49,1.31-1.4,1.31h-7.96Z"/>
        <path class="cls-3" d="M277.48,44.36c-.09-.96-.13-1.89-.13-2.82,0-.84.04-1.71.11-2.62.31-3.87,2.42-6,5.45-6s5.07,2.05,5.42,5.76c.09.98.16,1.96.16,2.91,0,2.51-.2,8.56-5.58,8.56-2.96,0-5.07-2.05-5.42-5.78ZM285.75,44.45c.13-.98.2-2.07.2-3.13,0-1.71,0-6.11-3.05-6.11-1.56,0-2.73,1.42-2.96,3.8-.07.82-.11,1.65-.11,2.45,0,.93.04,1.87.16,2.78.27,2.27,1.47,3.58,2.91,3.58s2.53-1.25,2.85-3.36Z"/>
        <path class="cls-3" d="M291.9,49.85c-.78,0-1.25-.58-1.25-1.31,0-.49.2-1.02.64-1.51,1.53-1.73,4.11-4.38,6.07-6.78.89-1.07,1.24-2.05,1.24-2.85,0-1.4-1.07-2.27-2.31-2.27-.96,0-2,.51-2.73,1.71-.29.47-.73.67-1.16.67-.67,0-1.31-.49-1.31-1.18,0-.78,1.69-3.42,5.18-3.42,2.58,0,5.02,1.6,5.02,4.25,0,1.27-.53,2.73-1.85,4.4-1.69,2.13-3.87,4.02-5.71,6.02,1.85-.02,4.36-.2,6.18-.2.91,0,1.33.58,1.33,1.16,0,.64-.49,1.31-1.4,1.31h-7.96Z"/>
        <path class="cls-3" d="M313.07,48.76v.04c0,.78-.58,1.13-1.18,1.13s-1.22-.38-1.22-1.18.02-1.69.02-2.6c-2.16.02-4.45.02-4.67.02-1.49,0-2.25-.73-2.25-1.71,0-.51.2-1.11.62-1.71,1.33-1.89,5-7.02,6.6-9.25.24-.36.58-.49.91-.49.67,0,1.31.56,1.31,1.27,0,.27-.09.56-.31.84-6.51,8.47-6.51,8.49-6.51,8.65,0,.27.36.27.91.27.76,0,2.09-.04,3.4-.07.02-.89.02-1.73.02-2.4,0-.49,0-.89-.02-1.18v-.09c0-.78.6-1.2,1.2-1.2s1.16.4,1.16,1.27c0,1.04-.07,1.89-.07,3.53.82-.02,1.42-.04,1.53-.04h.07c.73,0,1.13.53,1.13,1.09s-.42,1.13-1.29,1.16c-.27,0-.8.02-1.45.02,0,.73.04,1.62.07,2.62Z"/>
        <circle class="cls-3" cx="241.97" cy="48.46" r="3.56"/>
        <circle class="cls-3" cx="253.52" cy="45.31" r="5.45"/>
        <path class="cls-3" d="M124.22,19.43c0-5.98,4.47-10.37,10.33-10.37s10.29,4.38,10.29,10.37-4.43,10.37-10.29,10.37-10.33-4.18-10.33-10.37ZM140.7,19.43c0-4.06-2.79-6.6-6.15-6.6s-6.19,2.54-6.19,6.6,2.79,6.52,6.19,6.52,6.15-2.5,6.15-6.52Z"/>
        <path class="cls-3" d="M150.41,29.5c0-1.31-.08-3.19-.08-4.58,0,0-.08,1.93-.08-2.86v-2.25c0-1.43,1.07-2.13,2.13-2.13s2.17.74,2.17,2.05v.08c-.04,1.35-.04-1.95-.04.06,0,4.06.04,5.18.04,5.18,0,1.07.04,3.56.04,5.2v1.27c-.16,6.72-5.45,9.71-8.2,9.71-1.31,0-2.05-1.11-2.05-2.17,0-.9.49-1.76,1.6-1.93,2.38-.37,4.34-2.62,4.43-6.02.04-.66.04-1.19.04-1.6ZM149.46,11.41c0-2.01,1.72-2.79,2.87-2.79,1.48,0,2.87,1.23,2.87,2.79,0,1.48-1.11,2.91-2.87,2.91-1.6,0-2.87-1.02-2.87-2.91Z"/>
        <path class="cls-3" d="M159.96,19.43c0-5.98,4.47-10.37,10.33-10.37s10.29,4.38,10.29,10.37-4.43,10.37-10.29,10.37-10.33-4.18-10.33-10.37ZM176.43,19.43c0-4.06-2.79-6.6-6.15-6.6s-6.19,2.54-6.19,6.6,2.79,6.52,6.19,6.52,6.15-2.5,6.15-6.52Z"/>
        <path class="cls-3" d="M200.5,41.04c-10.2,0-15.7-7.58-15.7-15.57s5.86-16.23,15.86-16.23c6.52,0,10.94,3.77,10.94,5.98,0,1.39-1.19,2.54-2.5,2.54-.74,0-1.48-.33-2.09-1.11-1.6-1.97-4.18-2.91-6.76-2.91-6.93,0-10.61,5.9-10.61,11.43,0,3.44,2.01,11.15,10.65,11.15,3.11,0,6.19-1.19,7.87-3.44.57-.78,1.27-1.07,2.01-1.07,1.39,0,2.75,1.23,2.75,2.62,0,2.13-4.88,6.6-12.42,6.6Z"/>
        <path class="cls-3" d="M215.69,19.43c0-5.98,4.47-10.37,10.33-10.37s10.29,4.38,10.29,10.37-4.43,10.37-10.29,10.37-10.33-4.18-10.33-10.37ZM232.16,19.43c0-4.06-2.79-6.6-6.15-6.6s-6.19,2.54-6.19,6.6,2.79,6.52,6.19,6.52,6.15-2.5,6.15-6.52Z"/>
        <path class="cls-3" d="M254.57,27.55c.04-1.68.08-4.79.08-7.29,0-1.64-.04-3.03-.08-3.69-.16-2.54-1.6-3.57-3.32-3.57-2.5,0-5.49,2.21-5.61,4.96-.04.74-.04,1.68-.04,2.83,0,1.68.04,3.85.12,6.76.04.86-.45,2.09-2.09,2.09-1.11,0-2.17-.7-2.17-2.01v-.08c.12-3.89.16-6.6.16-9.02s-.04-4.59-.12-7.34v-.08c0-1.23,1.19-1.84,2.21-1.84s2.09.61,2.09,1.93c0,.16-.04.29-.04.41v.12s0,.08.04.08.12-.08.2-.16c1.52-1.64,3.69-2.46,5.82-2.46,3.44,0,6.76,2.25,6.93,6.84.04,1.47.12,5.12.12,8.15,0,1.27,0,2.42-.04,3.28-.04,1.48-1.07,2.17-2.13,2.17s-2.13-.74-2.13-2.05v-.04Z"/>
        <path class="cls-3" d="M134.32,79.01h-20.02c-1.19,0-2.16-.97-2.16-2.16s.97-2.16,2.16-2.16h20.02c1.19,0,2.16.97,2.16,2.16s-.97,2.16-2.16,2.16Z"/>
        <path class="cls-3" d="M214.43,78.73c-.34.22-.7.28-1.05.28h-59.46c-1.19,0-2.16-.97-2.16-2.16s.97-2.16,2.16-2.16h57.06c.35,0,.7-.07,1.03-.3.26-.18.44-.38.54-.54.15-.23,14.96-24.71,15.07-24.88.12-.19.36-.47.63-.62s.6-.26.98-.26h3.55c1.19,0,2.16.97,2.16,2.16s-.97,2.16-2.16,2.16h-1.13c-.27,0-.63.06-.95.25s-.53.46-.64.63c-.09.16-14.93,24.66-15.05,24.85s-.33.42-.58.59Z"/>
      </g>
    </g>
  </g>
</svg>