<svg width="68" height="33" viewBox="0 0 68 33" fill="none" xmlns="http://www.w3.org/2000/svg">
<path d="M50.2897 18.5591L66.7362 22.037C66.6374 19.0927 66.5188 16.346 66.3903 14.9924C66.3903 14.9034 66.3705 14.7948 66.3607 14.6959L52.7507 11.9492C52.0095 13.8462 51.1298 16.2076 50.2897 18.5591Z" fill="#DABC00"/>
<path d="M65.995 11.2475C65.4415 6.77174 64.295 1.01151 61.5473 0.398935C58.849 -0.203764 55.5578 5.75406 54.0653 8.83672L65.995 11.2475Z" fill="#DABC00"/>
<path d="M49.1629 21.7111C47.878 25.3371 46.8798 28.2716 46.8798 28.2716L67.0229 32.7671C67.0229 32.7671 66.9537 29.3584 66.8351 25.4458L49.1629 21.7012V21.7111Z" fill="#DABC00"/>
<path d="M16.7244 18.5591L0.277832 22.037C0.37667 19.0927 0.495265 16.346 0.623754 14.9924C0.623754 14.9034 0.643521 14.7948 0.653404 14.6959L14.2633 11.9492C15.0046 13.8462 15.8843 16.2076 16.7244 18.5591Z" fill="#DABC00"/>
<path d="M1.01917 11.2475C1.57266 6.77174 2.71917 1.01151 5.46685 0.398935C8.16512 -0.203764 11.4564 5.75406 12.9488 8.83672L1.01917 11.2475Z" fill="#DABC00"/>
<path d="M17.8512 21.7111C19.136 25.3371 20.1343 28.2716 20.1343 28.2716L-0.00878906 32.7671C-0.00878906 32.7671 0.0603996 29.3584 0.179005 25.4458L17.8512 21.7012V21.7111Z" fill="#DABC00"/>
</svg>
