<svg width="98" height="113" viewBox="0 0 98 113" fill="none" xmlns="http://www.w3.org/2000/svg">
<g clip-path="url(#clip0_2_1412)">
<path d="M61.17 25.8498C61.43 27.8598 61.61 29.4798 61.7 30.4598L61.85 31.9198H35.07L35.28 30.4098C35.41 29.4398 35.65 27.8498 35.98 25.8498C15.83 27.5398 0 44.4198 0 64.9998V73.2198C0 94.9298 17.6 112.52 39.3 112.52H57.88C79.59 112.52 97.18 94.9198 97.18 73.2198V64.9998C97.18 44.3998 81.33 27.5198 61.16 25.8398L61.17 25.8498Z" fill="#036EB8"/>
<path d="M57.37 21.3599H39.92C39.01 26.0299 38.53 29.6199 38.53 29.6199H58.46C58.46 29.6199 58.11 26.0399 57.37 21.3599Z" fill="#DABC00"/>
<path d="M56.9301 18.7098C56.5201 16.3898 56.0301 13.9398 55.4601 11.5898H42.1901C41.5301 13.9298 40.9401 16.3898 40.4501 18.7098H56.9201H56.9301Z" fill="#DABC00"/>
<path d="M54.75 8.93998C53.3 3.90998 51.4 -0.05002 49.02 -1.99853e-05C46.66 0.04998 44.63 3.96998 43 8.93998H54.75Z" fill="#DABC00"/>
<path d="M74.67 87.73C74.67 87.73 56.73 98.62 48.6 98.62C40.47 98.62 22.03 90.45 22.03 90.45" stroke="white" stroke-width="7" stroke-miterlimit="10" stroke-linecap="round"/>
<path d="M33.92 93.5499C33.92 93.5499 29.42 77.3898 28.65 74.4598C27.88 71.5298 20.62 89.4898 21.24 89.4898C21.86 89.4898 33.92 93.5499 33.92 93.5499Z" fill="white"/>
<path d="M62.79 94.0596C62.79 94.0596 67.29 77.8996 68.06 74.9696C68.83 72.0396 76.09 89.9996 75.47 89.9996C74.85 89.9996 62.79 94.0596 62.79 94.0596Z" fill="white"/>
</g>
<defs>
<clipPath id="clip0_2_1412">
<rect width="97.19" height="112.53" fill="white"/>
</clipPath>
</defs>
</svg>
