<svg width="95" height="109" viewBox="0 0 95 109" fill="none" xmlns="http://www.w3.org/2000/svg">
<g clip-path="url(#clip0_32_2)">
<path d="M64.3687 18.8024L81.3625 22.3944C81.2572 19.355 81.1387 16.513 81.0071 15.1183C81.0071 15.0262 80.9939 14.9078 80.9808 14.8157L66.9223 11.9736C66.1589 13.9341 65.2506 16.3814 64.3818 18.8024H64.3687Z" fill="#DABC00"/>
<path d="M80.5991 11.2497C80.0199 6.63143 78.8352 0.671046 76.0051 0.0394822C73.2144 -0.578924 69.8183 5.56567 68.2782 8.7498L80.5991 11.2366V11.2497Z" fill="#DABC00"/>
<path d="M63.1972 22.0654C61.8677 25.8153 60.8409 28.8416 60.8409 28.8416L81.6522 33.4862C81.6522 33.4862 81.5732 29.96 81.4547 25.9338L63.1972 22.0654Z" fill="#DABC00"/>
<path d="M29.6833 18.8024L12.6895 22.3944C12.7948 19.355 12.9132 16.513 13.0449 15.1183C13.0449 15.0262 13.058 14.9078 13.0712 14.8157L27.1296 11.9736C27.8931 13.9341 28.8014 16.3814 29.6701 18.8024H29.6833Z" fill="#DABC00"/>
<path d="M13.453 11.2497C14.0322 6.63143 15.2169 0.671046 18.0602 0.0394822C20.8508 -0.578924 24.2469 5.56567 25.787 8.7498L13.4662 11.2366L13.453 11.2497Z" fill="#DABC00"/>
<path d="M30.8549 22.0654C32.1844 25.8153 33.2111 28.8416 33.2111 28.8416L12.3999 33.4862C12.3999 33.4862 12.4789 29.96 12.5974 25.9338L30.8549 22.0654Z" fill="#DABC00"/>
<path d="M84.4427 24.276C84.6138 29.7232 84.7323 35.052 84.7323 35.4468L84.7718 37.1573L56.7339 30.8942L57.221 29.4732C57.3131 29.2101 58.0502 27.0391 59.0901 24.0786H34.9486C35.9885 27.0391 36.7257 29.2101 36.8178 29.4732L37.3048 30.8942L9.26696 37.1573L9.30645 35.4468C9.30645 35.052 9.42492 29.7232 9.59604 24.276C4.14643 25.2102 -0.0131836 29.9601 -0.0131836 35.6704V96.5111C-0.0131836 102.906 5.17317 108.09 11.5705 108.09H82.455C88.8524 108.09 94.0388 102.906 94.0388 96.5111V35.6704C94.0388 29.9469 89.8923 25.2102 84.4295 24.276H84.4427ZM83.3633 92.8796C82.7578 94.8138 80.7043 95.8927 78.7693 95.2875C78.5587 95.2217 57.7343 88.7745 47.0194 88.7745C36.3044 88.7745 15.4932 95.2217 15.2826 95.2875C14.914 95.4059 14.5455 95.4585 14.19 95.4585C12.6236 95.4585 11.1756 94.4454 10.6886 92.8796C10.0831 90.9454 11.1625 88.8797 13.0975 88.2876C13.3476 88.2087 15.2299 87.6297 18.0469 86.8403C20.5611 81.0773 25.3789 71.2749 25.8791 73.1564C26.3661 74.9853 27.5113 80.8273 28.1695 84.2351C34.5537 82.7614 41.7277 81.4457 47.0194 81.4457C52.311 81.4457 59.4982 82.7614 65.8824 84.2351C66.5406 80.8273 67.699 74.9853 68.1728 73.1564C68.673 71.2749 73.4908 81.0641 76.005 86.8403C78.822 87.6297 80.7043 88.2087 80.9544 88.2876C82.8894 88.8929 83.9688 90.9454 83.3633 92.8796Z" fill="#BD0008"/>
</g>
<defs>
<clipPath id="clip0_32_2">
<rect width="94.0519" height="108.09" fill="white"/>
</clipPath>
</defs>
</svg>
