<svg width="90" height="120" viewBox="0 0 90 120" fill="none" xmlns="http://www.w3.org/2000/svg">
<path d="M87.9308 62.1989L77.968 41.7269L77.8593 42.1814L61.3633 33.7337L62.2133 32.4493C62.2133 32.4493 62.3319 32.2715 62.4604 32.0837L44.9167 29.4556L27.3731 32.0837C27.5016 32.2715 27.5905 32.4098 27.6202 32.4493L28.4701 33.7337L11.9742 42.1814L11.8951 41.8554L2.00146 62.1989C-0.667153 67.6825 -0.667153 74.0948 2.00146 79.5784L15.9376 108.221C19.2684 115.059 26.2068 119.406 33.8173 119.406H56.1446C63.7551 119.406 70.6936 115.068 74.0244 108.221L87.9604 79.5784C90.6291 74.0948 90.6291 67.6825 87.9604 62.1989H87.9308ZM71.593 94.636C69.8139 95.7228 53.9307 105.208 45.7173 105.208C37.5039 105.208 21.5614 98.1534 19.7527 97.3531C18.0922 96.612 17.3411 94.6656 18.0724 93.0057C18.6062 91.7905 19.7823 91.0791 21.0277 91.0494C22.6783 86.544 26.6812 77.4541 27.2248 79.5191C27.7684 81.5742 30.2789 90.6443 31.4748 94.9423C36.6638 96.8294 42.4655 98.6178 45.7173 98.6178C48.801 98.6178 54.6226 96.1971 60.029 93.48C61.3139 88.8362 63.2708 81.7817 63.7453 79.9934C64.19 78.3038 66.9476 84.0739 68.8354 88.6979C70.2686 88.2138 71.8796 88.7671 72.6999 90.1108C73.6488 91.662 73.1447 93.6974 71.593 94.636Z" fill="#440062"/>
<path d="M11.1735 28.2697L19.8712 23.5371C18.7445 21.8673 17.7265 20.3951 17.1334 19.6442C15.5817 17.6978 12.241 13.8741 10.6398 14.6843C8.5148 15.7711 9.99735 22.8454 10.5706 25.6613C10.6892 26.2344 10.9067 27.173 11.1834 28.2598L11.1735 28.2697Z" fill="#DABC00"/>
<path d="M21.8184 26.4814L12.0631 31.7872C12.9131 35.0576 13.773 38.2785 13.773 38.2785L25.5445 32.2515C25.5445 32.2515 23.7753 29.4752 21.8085 26.4814H21.8184Z" fill="#DABC00"/>
<path d="M40.0045 13.5283L28.6382 15.6328C28.5195 17.2433 28.3911 19.2194 28.2725 21.1757L41.408 18.8736C40.9533 17.0852 40.469 15.2179 40.0045 13.5382V13.5283Z" fill="#DABC00"/>
<path d="M42.2679 22.2925L28.0551 24.7922C27.9167 27.3216 27.8179 29.2087 27.8179 29.2087L43.4045 26.8769C43.4045 26.8769 42.9301 24.9404 42.2679 22.2925Z" fill="#DABC00"/>
<path d="M39.0359 10.1198C38.8481 9.47756 38.6702 8.93414 38.5219 8.51917C37.494 5.59459 35.1219 -0.303951 33.0068 0.0122194C30.4173 0.397552 29.4091 7.98563 28.9545 11.9872L39.026 10.1198H39.0359Z" fill="#DABC00"/>
<path d="M79.2034 28.2697L70.5057 23.5371C71.6325 21.8673 72.6505 20.3951 73.2435 19.6442C74.7953 17.6978 78.136 13.8741 79.7372 14.6843C81.8622 15.7711 80.3796 22.8454 79.8063 25.6613C79.6877 26.2344 79.4703 27.173 79.1935 28.2598L79.2034 28.2697Z" fill="#DABC00"/>
<path d="M68.5488 26.4814L78.3041 31.7872C77.454 35.0576 76.5942 38.2785 76.5942 38.2785L64.8226 32.2515C64.8226 32.2515 66.5918 29.4752 68.5587 26.4814H68.5488Z" fill="#DABC00"/>
<path d="M50.3726 13.5283L61.7389 15.6328C61.8575 17.2433 61.986 19.2194 62.1046 21.1757L48.9691 18.8736C49.4238 17.0852 49.9081 15.2179 50.3726 13.5382V13.5283Z" fill="#DABC00"/>
<path d="M48.1092 22.2925L62.322 24.7922C62.4604 27.3216 62.5592 29.2087 62.5592 29.2087L46.9725 26.8769C46.9725 26.8769 47.447 24.9404 48.1092 22.2925Z" fill="#DABC00"/>
<path d="M51.3313 10.1198C51.5191 9.47756 51.697 8.93414 51.8453 8.51917C52.8732 5.59459 55.2453 -0.303951 57.3604 0.0122194C59.9499 0.397552 60.9581 7.98563 61.4127 11.9872L51.3412 10.1198H51.3313Z" fill="#DABC00"/>
</svg>
