<?xml version="1.0" encoding="UTF-8"?>
<svg id="_レイヤー_2" data-name="レイヤー 2" xmlns="http://www.w3.org/2000/svg" viewBox="0 0 65.62 77.31">
  <defs>
    <style>
      .cls-1 {
        fill: #e71f19;
      }

      .cls-1, .cls-2 {
        stroke-width: 0px;
      }

      .cls-2 {
        fill: #006654;
      }
    </style>
  </defs>
  <g id="_レイヤー_1-2" data-name="レイヤー 1">
    <g>
      <g>
        <ellipse class="cls-2" cx="34.03" cy="48.52" rx="31.59" ry="28.8"/>
        <g>
          <path class="cls-2" d="M15.44,29.5c2.74.45,5.3.97,7.5,1.41,1.92.39,3.86.73,5.8,1.05,1.09-1.31,2.3-2.57,3.7-3.74,2.41-2.03,4.96-4.03,7.6-5.95l-3.68,1.26L19.43.18l1.41,27.96-5.41,1.36Z"/>
          <path class="cls-2" d="M22.94,30.91c1.92.39,3.86.73,5.8,1.05,1.09-1.31,2.3-2.57,3.7-3.74,2.68-2.25,5.51-4.48,8.47-6.59l-.91-.02L33,0l-8.28,21.24-24.72-.62,11.93,8.36c4.05.52,7.9,1.3,11.01,1.93Z"/>
        </g>
      </g>
      <path class="cls-1" d="M34.05,38.1c1.71-5.5,5.97-8.15,10.74-8.15,5.71,0,10.07,4.77,10.07,10.53,0,6.95-3.79,12.09-7.68,16.81-3.73,4.51-11.21,12.4-13.13,14.32h-.1c-1.92-1.92-9.34-9.81-13.08-14.32-3.89-4.72-7.68-9.86-7.68-16.81,0-5.86,4.51-10.53,10.12-10.53,4.72,0,8.92,2.65,10.64,8.15h.1Z"/>
    </g>
  </g>
</svg>